<svg xmlns="http://www.w3.org/2000/svg" xmlns:xlink="http://www.w3.org/1999/xlink" width="301" height="88" viewBox="0 0 301 88">
  <defs>
    <radialGradient id="radial-gradient" cx="-6.247" cy="-28.844" r="25.231" gradientUnits="objectBoundingBox">
      <stop offset="0" stop-color="#fdf59e"/>
      <stop offset="1" stop-color="#f8ce1f"/>
    </radialGradient>
    <radialGradient id="radial-gradient-2" cx="-5.546" cy="-32.741" r="26.713" xlink:href="#radial-gradient"/>
    <radialGradient id="radial-gradient-3" cx="-5.282" cy="-42.242" r="32.097" xlink:href="#radial-gradient"/>
    <radialGradient id="radial-gradient-4" cx="-11.698" cy="-24.299" r="34.339" xlink:href="#radial-gradient"/>
    <radialGradient id="radial-gradient-5" cx="-10.323" cy="-23.003" r="30.185" xlink:href="#radial-gradient"/>
    <radialGradient id="radial-gradient-6" cx="-14.884" cy="-31.222" r="42.2" gradientUnits="objectBoundingBox">
      <stop offset="0" stop-color="#f9b381"/>
      <stop offset="0.989" stop-color="#a82923"/>
    </radialGradient>
    <radialGradient id="radial-gradient-7" cx="-15.865" cy="-31.843" r="46.238" xlink:href="#radial-gradient-6"/>
    <radialGradient id="radial-gradient-8" cx="-1.291" cy="-15.313" r="11.367" xlink:href="#radial-gradient-6"/>
    <radialGradient id="radial-gradient-9" cx="-3.454" cy="-23.816" r="18.857" xlink:href="#radial-gradient-6"/>
    <radialGradient id="radial-gradient-10" cx="-5.158" cy="-27.542" r="23.291" xlink:href="#radial-gradient-6"/>
    <radialGradient id="radial-gradient-11" cx="0.913" cy="-0.256" r="0.875" gradientUnits="objectBoundingBox">
      <stop offset="0" stop-color="#fff000"/>
      <stop offset="1" stop-color="#f09927"/>
    </radialGradient>
    <radialGradient id="radial-gradient-12" cx="0.634" cy="0.376" r="0.778" xlink:href="#radial-gradient-11"/>
    <radialGradient id="radial-gradient-13" cx="0.501" cy="0.501" r="0.623" gradientUnits="objectBoundingBox">
      <stop offset="0" stop-color="#00abea"/>
      <stop offset="0.989" stop-color="#06509f"/>
    </radialGradient>
    <radialGradient id="radial-gradient-14" cx="0.501" cy="0.5" r="0.63" xlink:href="#radial-gradient-13"/>
  </defs>
  <g id="XMLID_1_" transform="translate(0 -0.016)">
    <g id="XMLID_256_" transform="translate(189.062 7.804)">
      <path id="XMLID_220_" d="M754.5,241.39a33.346,33.346,0,0,0-4.651,5.338,26.508,26.508,0,0,1,4.651,5.389,26.738,26.738,0,0,1,4.658-5.389A33.2,33.2,0,0,0,754.5,241.39Z" transform="translate(-698.536 -172.223)" fill="#06509f"/>
      <path id="XMLID_219_" d="M775.192,208.12q-.365.712-.7,1.439C774.721,209.072,774.948,208.588,775.192,208.12Z" transform="translate(-715.277 -149.511)" fill="#814024"/>
      <path id="XMLID_218_" d="M775.192,208.12q-.365.712-.7,1.439C774.721,209.072,774.948,208.588,775.192,208.12Z" transform="translate(-715.277 -149.511)" fill="url(#radial-gradient)"/>
      <path id="XMLID_217_" d="M771.068,217.44c-.2.452-.381.9-.558,1.356C770.686,218.341,770.869,217.9,771.068,217.44Z" transform="translate(-712.573 -155.859)" fill="#814024"/>
      <path id="XMLID_216_" d="M771.068,217.44c-.2.452-.381.9-.558,1.356C770.686,218.341,770.869,217.9,771.068,217.44Z" transform="translate(-712.573 -155.859)" fill="url(#radial-gradient-2)"/>
      <path id="XMLID_215_" d="M726.057,150.29c-1.378,1.988-2.712,4.03-3.937,6.21a43.387,43.387,0,0,1,9.454,12.092,61.548,61.548,0,0,1,4.087-7.165A56.179,56.179,0,0,0,726.057,150.29Z" transform="translate(-679.695 -110.18)" fill="#814024"/>
      <path id="XMLID_214_" d="M767.5,227.68c-.131.372-.266.741-.385,1.125C767.239,228.421,767.373,228.052,767.5,227.68Z" transform="translate(-710.269 -162.908)" fill="#814024"/>
      <path id="XMLID_213_" d="M767.5,227.68c-.131.372-.266.741-.385,1.125C767.239,228.421,767.373,228.052,767.5,227.68Z" transform="translate(-710.269 -162.908)" fill="url(#radial-gradient-3)"/>
      <path id="XMLID_212_" d="M621.9,123.7c1.257-2.276,2.613-4.44,4.017-6.527a44.247,44.247,0,0,0-33.279-3.34,70.333,70.333,0,0,0-2.513,9.358c-.029.24-.061.478-.087.721A38.457,38.457,0,0,1,621.9,123.7Z" transform="translate(-589.957 -84.063)" fill="#814024"/>
      <path id="XMLID_211_" d="M817.033,159.12c-.51.34-1.013.689-1.5,1.051C816.02,159.809,816.524,159.46,817.033,159.12Z" transform="translate(-743.161 -116.134)" fill="#814024"/>
      <path id="XMLID_210_" d="M817.033,159.12c-.51.34-1.013.689-1.5,1.051C816.02,159.809,816.524,159.46,817.033,159.12Z" transform="translate(-743.161 -116.134)" fill="url(#radial-gradient-4)"/>
      <path id="XMLID_209_" d="M809,165.08c-.49.388-.978.789-1.452,1.2C808.025,165.869,808.512,165.471,809,165.08Z" transform="translate(-737.739 -120.194)" fill="#814024"/>
      <path id="XMLID_208_" d="M809,165.08c-.49.388-.978.789-1.452,1.2C808.025,165.869,808.512,165.471,809,165.08Z" transform="translate(-737.739 -120.194)" fill="url(#radial-gradient-5)"/>
      <path id="XMLID_207_" d="M669.553,36.893A70.414,70.414,0,0,0,637.685,24.31,60.011,60.011,0,0,0,624.82,37.588a57.752,57.752,0,0,1,34.26,8.258A77.35,77.35,0,0,1,669.553,36.893Z" transform="translate(-613.587 -24.31)" fill="#814024"/>
      <path id="XMLID_206_" d="M773.954,110.333a51.338,51.338,0,0,1,10.409-7.1,81.65,81.65,0,0,0-9.537-11.749,64.971,64.971,0,0,0-10.476,7.838A67.856,67.856,0,0,1,773.954,110.333Z" transform="translate(-708.388 -70.095)" fill="#814024"/>
      <path id="XMLID_205_" d="M813.186,162.4c-.375.282-.731.571-1.106.862C812.455,162.971,812.814,162.679,813.186,162.4Z" transform="translate(-740.817 -118.368)" fill="#814024"/>
      <path id="XMLID_204_" d="M813.186,162.4c-.375.282-.731.571-1.106.862C812.455,162.971,812.814,162.679,813.186,162.4Z" transform="translate(-740.817 -118.368)" fill="url(#radial-gradient-6)"/>
      <path id="XMLID_203_" d="M773.961,150.29a56.53,56.53,0,0,0-9.6,11.14,58.962,58.962,0,0,1,4.078,7.142c-.042.087-.09.163-.128.256a43.4,43.4,0,0,1,9.9-12.6c-.1.087-.205.163-.314.253A68.122,68.122,0,0,0,773.961,150.29Z" transform="translate(-708.394 -110.181)" fill="#814024"/>
      <path id="XMLID_202_" d="M821.422,156.67c-.4.256-.8.513-1.2.785C820.621,157.183,821.021,156.926,821.422,156.67Z" transform="translate(-746.347 -114.465)" fill="#814024"/>
      <path id="XMLID_201_" d="M821.422,156.67c-.4.256-.8.513-1.2.785C820.621,157.183,821.021,156.926,821.422,156.67Z" transform="translate(-746.347 -114.465)" fill="url(#radial-gradient-7)"/>
      <path id="XMLID_200_" d="M765.221,231.19c-.333,1.042-.638,2.1-.891,3.183C764.586,233.293,764.888,232.235,765.221,231.19Z" transform="translate(-708.374 -165.293)" fill="#814024"/>
      <path id="XMLID_199_" d="M765.221,231.19c-.333,1.042-.638,2.1-.891,3.183C764.586,233.293,764.888,232.235,765.221,231.19Z" transform="translate(-708.374 -165.293)" fill="url(#radial-gradient-8)"/>
      <path id="XMLID_198_" d="M769.022,221.67c-.253.638-.481,1.276-.7,1.927C768.541,222.946,768.769,222.311,769.022,221.67Z" transform="translate(-711.085 -158.743)" fill="#814024"/>
      <path id="XMLID_197_" d="M769.022,221.67c-.253.638-.481,1.276-.7,1.927C768.541,222.946,768.769,222.311,769.022,221.67Z" transform="translate(-711.085 -158.743)" fill="url(#radial-gradient-9)"/>
      <path id="XMLID_196_" d="M772.958,212.6c-.247.51-.484,1.026-.718,1.552C772.471,213.626,772.714,213.11,772.958,212.6Z" transform="translate(-713.748 -152.563)" fill="#814024"/>
      <path id="XMLID_195_" d="M772.958,212.6c-.247.51-.484,1.026-.718,1.552C772.471,213.626,772.714,213.11,772.958,212.6Z" transform="translate(-713.748 -152.563)" fill="url(#radial-gradient-10)"/>
      <path id="XMLID_194_" d="M755.7,185.04a61.543,61.543,0,0,0-4.087,7.165,45.178,45.178,0,0,1,4.078,10.813c.256-1.077.558-2.138.891-3.183.119-.385.253-.753.385-1.125.224-.648.449-1.285.7-1.927.176-.458.362-.9.558-1.356.234-.526.471-1.042.718-1.552q.337-.726.7-1.439c.038-.093.087-.17.128-.256A58.483,58.483,0,0,0,755.7,185.04Z" transform="translate(-699.732 -133.937)" fill="#814024"/>
      <path id="XMLID_193_" d="M804.729,128.13a51.379,51.379,0,0,0-10.409,7.1,68.515,68.515,0,0,1,3.93,6.193c.109-.09.218-.167.314-.253.471-.41.958-.811,1.452-1.2.375-.288.731-.58,1.106-.862.49-.362.994-.712,1.5-1.051.4-.272.8-.529,1.2-.785.506-.324,1.026-.628,1.558-.923.423-.237.846-.468,1.276-.686.539-.276,1.074-.545,1.622-.8.151-.064.295-.154.452-.215C807.489,132.381,806.124,130.223,804.729,128.13Z" transform="translate(-728.75 -95.058)" fill="#814024"/>
      <path id="XMLID_192_" d="M721.97,99.328A64.109,64.109,0,0,0,711.5,91.49a82.158,82.158,0,0,0-9.527,11.755,50.727,50.727,0,0,1,10.4,7.1A68.5,68.5,0,0,1,721.97,99.328Z" transform="translate(-666.005 -70.102)" fill="#814024"/>
      <path id="XMLID_191_" d="M774.843,45.85a57.816,57.816,0,0,1,34.269-8.258A60.366,60.366,0,0,0,796.257,24.32h-.01A70.424,70.424,0,0,0,764.37,36.9,77.413,77.413,0,0,1,774.843,45.85Z" transform="translate(-708.401 -24.317)" fill="#814024"/>
      <path id="XMLID_190_" d="M693.457,128.15c-1.407,2.087-2.76,4.251-4.017,6.527a40.352,40.352,0,0,1,10.479,6.78c1.225-2.18,2.558-4.222,3.937-6.21A50.947,50.947,0,0,0,693.457,128.15Z" transform="translate(-657.492 -95.072)" fill="#814024"/>
      <path id="XMLID_189_" d="M752.639,72.5a76.633,76.633,0,0,0-10.476-8.954A77.584,77.584,0,0,0,731.69,72.5a64.247,64.247,0,0,1,10.473,7.838A64.971,64.971,0,0,1,752.639,72.5Z" transform="translate(-686.197 -51.054)" fill="#814024"/>
      <path id="XMLID_188_" d="M621.725,123.69a40.352,40.352,0,0,1,10.48,6.78,43.389,43.389,0,0,1,9.454,12.092,45.183,45.183,0,0,1,4.078,10.813,45.677,45.677,0,0,1,4.087-10.835c-11.236-23.514-35.3-35.391-57.357-28.717a70.146,70.146,0,0,0-2.687,10.111,38.49,38.49,0,0,1,31.945-.244Z" transform="translate(-589.78 -84.298)" fill="url(#radial-gradient-11)"/>
      <path id="XMLID_187_" d="M637.685,24.31A60.012,60.012,0,0,0,624.82,37.588c22.8-1.8,45.518,10.521,58.268,33.3a40.175,40.175,0,0,1,10.486-6.777C681.02,41.294,660.09,27.15,637.685,24.31Z" transform="translate(-613.587 -24.31)" fill="url(#radial-gradient-12)"/>
      <path id="XMLID_186_" d="M795.4,120.332a38.393,38.393,0,0,1,16.272,3.613,68.006,68.006,0,0,0-2.68-10.13c-22.068-6.687-46.15,5.209-57.379,28.739a45.173,45.173,0,0,1,4.078,10.813C760.176,134.386,776.249,120.332,795.4,120.332Z" transform="translate(-699.732 -84.29)" fill="url(#radial-gradient-13)"/>
      <path id="XMLID_185_" d="M758.2,37.588A59.99,59.99,0,0,0,745.319,24.31c-22.4,2.84-43.332,16.984-55.889,39.815a40.348,40.348,0,0,1,10.48,6.78C712.668,48.113,735.371,35.783,758.2,37.588Z" transform="translate(-657.485 -24.31)" fill="url(#radial-gradient-14)"/>
    </g>
    <g id="XMLID_385_" transform="translate(3.506 53.63)">
      <path id="XMLID_568_" d="M435.63,188.55c.042.006.083.01.125.016a1.483,1.483,0,0,1-.394.85l-2.09.769q-3.967,1.563-7.941,3.129c.087-.244.272-1.007.439-1.116l2.718-.991Z" transform="translate(-292.486 -182.148)" fill="#06509f" fill-rule="evenodd"/>
      <path id="XMLID_562_" d="M484.34,222.215c-.1-.25-.221-.529-.5-1.324q.909-2.063,1.818-4.123,3.3-7.968,6.61-15.939a3.736,3.736,0,0,1,.465,1.686q-1.193,2.674-2.382,5.347C488.293,212.563,486.4,217.513,484.34,222.215Z" transform="translate(-332.24 -190.492)" fill="#06509f" fill-rule="evenodd"/>
      <path id="XMLID_556_" d="M251.9,185.36c.042.006.083.01.125.016a1.483,1.483,0,0,1-.394.85l-2.09.769q-3.967,1.563-7.941,3.129c.087-.244.272-1.007.439-1.116l2.718-.991Q248.335,186.69,251.9,185.36Z" transform="translate(-167.655 -179.981)" fill="#06509f" fill-rule="evenodd"/>
      <path id="XMLID_550_" d="M97.954,185.93c.016.006.032.01.048.016.051.279.106.555.157.833a3.277,3.277,0,0,1,.439,2.263,1.7,1.7,0,0,1-.519.9c-.632.42-1.237-.369-1.321-.85-.01.006-.022.01-.032.016-.077.718-1.119,1.744-1.76.91a2.471,2.471,0,0,1-.314-1.526,2.83,2.83,0,0,0-.032-.692l-.25-.125a.933.933,0,0,1,.66-1.132c.026.022.051.042.08.064a3.135,3.135,0,0,1,.064.926c-.087.548-.2,1.968.66,1.728a.959.959,0,0,0,.5-.378,2.026,2.026,0,0,0,.048-1.651,1.256,1.256,0,0,1-.093-.551,1.344,1.344,0,0,1,.3-.6c.016.006.032.01.048.016a5.239,5.239,0,0,1,.423,1.587c.077.446,0,.808.221,1.084.228.292.955.365,1.023-.125a3.466,3.466,0,0,1-.676-2.09A1.491,1.491,0,0,1,97.954,185.93Z" transform="translate(-67.601 -180.368)" fill="#06509f" fill-rule="evenodd"/>
      <path id="XMLID_180_" d="M433.823,208.3c-.619.372-.821-.776-.724-1.321.115-.635.551-2.254.555-2.257-.125.135-1.76,3.276-.8,4.459a.737.737,0,0,0,.926.109,2.6,2.6,0,0,0,.708-1.84h-.016C434.194,207.673,434.14,208.108,433.823,208.3Z" transform="translate(-297.392 -193.135)" fill="#06509f" fill-rule="evenodd"/>
      <path id="XMLID_179_" d="M324.713,250.228c-.619.372-.821-.776-.724-1.321.115-.635.551-2.254.555-2.257-.125.135-1.76,3.276-.8,4.459a.737.737,0,0,0,.926.109,2.6,2.6,0,0,0,.708-1.84h-.016C325.085,249.6,325.027,250.035,324.713,250.228Z" transform="translate(-223.26 -221.623)" fill="#06509f" fill-rule="evenodd"/>
      <path id="XMLID_178_" d="M32.373,208.3c-.619.372-.821-.776-.724-1.321.115-.635.551-2.254.555-2.257-.125.135-1.76,3.276-.8,4.459a.737.737,0,0,0,.926.109,2.6,2.6,0,0,0,.708-1.84h-.016C32.745,207.673,32.69,208.108,32.373,208.3Z" transform="translate(-24.636 -193.135)" fill="#06509f" fill-rule="evenodd"/>
      <path id="XMLID_177_" d="M277.393,262.308c-.619.372-.821-.776-.724-1.321.115-.635.551-2.254.555-2.257-.125.135-1.76,3.276-.8,4.459a.737.737,0,0,0,.926.109,2.6,2.6,0,0,0,.708-1.84h-.016C277.764,261.686,277.71,262.118,277.393,262.308Z" transform="translate(-191.109 -229.83)" fill="#06509f" fill-rule="evenodd"/>
      <path id="XMLID_176_" d="M219.733,262.308c-.619.372-.821-.776-.724-1.321.115-.635.551-2.254.555-2.257-.125.135-1.76,3.276-.8,4.459a.737.737,0,0,0,.926.109,2.6,2.6,0,0,0,.708-1.84h-.016C220.1,261.686,220.05,262.118,219.733,262.308Z" transform="translate(-151.933 -229.83)" fill="#06509f" fill-rule="evenodd"/>
      <path id="XMLID_529_" d="M245.106,253.949c.856-.019.9.747.628,1.385a8.67,8.67,0,0,1-1.353,1.715,4.554,4.554,0,0,1-.741.91h-.016v-.08a5.814,5.814,0,0,1,.975-1.683c.25-.272.5-.545.753-.817-.244-.776-1.574.1-2,.282a11.445,11.445,0,0,1-6.149,1.055,13.806,13.806,0,0,1-1.792-.6,2.358,2.358,0,0,1-.314,1.792h-.016a6.831,6.831,0,0,0-.205-1.6l-.85-1.321c.08-.3.1-.638.362-.753.337.09.625.465.91.644a6.345,6.345,0,0,0,1.792.741,4.894,4.894,0,0,0,1.872.141c.237-.01.471-.022.708-.032.478-.08.955-.157,1.43-.237a19.306,19.306,0,0,0,3.113-1.228C244.519,254.158,244.814,254.055,245.106,253.949Z" transform="translate(-162.512 -226.582)" fill="#06509f" fill-rule="evenodd"/>
      <path id="XMLID_523_" d="M175.909,187.05c.3.051.7.619.866.85a5.326,5.326,0,0,1,.8,3.93,15.755,15.755,0,0,1-.724,2.311c-.18.516-.548,2.007.221,2.154.539.1.632-.766.926-.9v.173c-.176.619-.256,1.356-.724,1.683-.7.487-1.023-.365-1.116-.9a3.386,3.386,0,0,1,.08-1.289,9.8,9.8,0,0,1,.362-1.353,5.17,5.17,0,0,0,.519-2.831,4.96,4.96,0,0,0-.91-2.106c-.163-.221-.724-.673-.741-.959C175.617,187.563,175.762,187.306,175.909,187.05Z" transform="translate(-122.725 -181.129)" fill="#06509f" fill-rule="evenodd"/>
      <path id="XMLID_517_" d="M126.794,187.76a7.194,7.194,0,0,1,2.045,1.369,2.876,2.876,0,0,1-.644,1.478c-.093.151-.141.391-.346.423-.628-.436-1.257-.869-1.888-1.3-.08.272-.619,1.407-.85,1.446-.593-.535-1.353-.882-1.981-1.385a5.608,5.608,0,0,1,.644-1.369c.058-.131.147-.478.282-.519.183-.058.417.189.519.25a17.77,17.77,0,0,1,1.478,1.055A6.013,6.013,0,0,1,126.794,187.76Z" transform="translate(-87.164 -181.611)" fill="#06509f" fill-rule="evenodd"/>
      <path id="XMLID_511_" d="M202.732,187.76a7.25,7.25,0,0,1,2.045,1.385,3.036,3.036,0,0,1-.644,1.462c-.064.106-.16.407-.282.439-.141.042-.417-.263-.5-.33l-1.007-.708c-.173-.109-.442-.205-.551-.378A8.229,8.229,0,0,1,202.732,187.76Z" transform="translate(-140.607 -181.611)" fill="#06509f" fill-rule="evenodd"/>
      <path id="XMLID_503_" d="M283.893,194.6a5.929,5.929,0,0,0-2.2,1.824c-.7-.119-1.029-1.084-1.212-1.715h-.048c-.686.519-.106,1.225-.032,1.917a1.14,1.14,0,0,1-1.289.237c-.141-.061-.253-.25-.487-.205a1.87,1.87,0,0,0-1.212,1.776c.026.01.051.022.08.032.317-.189.5-.519.91-.628.362-.1.526.16.785.221.968.218,1.253-.481,1.571-.991v-.032c.154.157.231.317.471.394-.026.18-.157.471-.08.66.029.032,0,.013.048.032a1.344,1.344,0,0,0,.362-.6,3.269,3.269,0,0,0,2.908-1.18C284.877,195.705,284.974,194.577,283.893,194.6Zm-1.808,1.885v-.016a3.4,3.4,0,0,1,1.462-.959c.317-.016.6.022.6.33A2.675,2.675,0,0,1,282.085,196.484Z" transform="translate(-191.98 -186.258)" fill="#06509f" fill-rule="evenodd"/>
      <path id="XMLID_497_" d="M108.948,256.149c.869-.019.965.84.692,1.542a4.877,4.877,0,0,1-2.17,2.436c.061-.257.353-.426.5-.612a10.138,10.138,0,0,0,1.039-1.385c.157-.282.186-.773-.157-.882-.407-.128-.587.244-.85.221l-.016-.016C108.243,256.595,108.146,256.492,108.948,256.149Z" transform="translate(-76.524 -228.077)" fill="#06509f" fill-rule="evenodd"/>
      <path id="XMLID_491_" d="M144.808,257.219c.869-.019.965.84.692,1.542a4.877,4.877,0,0,1-2.17,2.436c.061-.256.353-.426.5-.612a10.136,10.136,0,0,0,1.039-1.385c.157-.282.186-.773-.157-.882-.407-.128-.587.244-.85.221l-.016-.016C144.1,257.665,144.006,257.562,144.808,257.219Z" transform="translate(-100.888 -228.804)" fill="#06509f" fill-rule="evenodd"/>
      <path id="XMLID_485_" d="M366.536,187.76a7.454,7.454,0,0,1,2.045,1.385,2.993,2.993,0,0,1-.644,1.462c-.1.157-.141.41-.378.423q-.716-.519-1.43-1.039c-.154-.1-.5-.2-.519-.423A8.862,8.862,0,0,1,366.536,187.76Z" transform="translate(-251.911 -181.611)" fill="#06509f" fill-rule="evenodd"/>
      <path id="XMLID_479_" d="M442.086,208.36a2.553,2.553,0,0,1,.991.423q.952.457,1.9.91c.26.131.741.282.769.628-.208.3-.981.2-1.446.189a4.429,4.429,0,0,0,.866.753,28.07,28.07,0,0,0,4.385,2.484,6.327,6.327,0,0,1,2.343,1.494,5.476,5.476,0,0,1,.048,4.985,11.583,11.583,0,0,1-2.956,2.484,59.613,59.613,0,0,1-5.818,3.789c-.837.455-2.327,1.353-3.616.85-2.286-.891-1.683-5-.991-7.2.147-.471.471-1.744.817-1.949.016.01.032.022.048.032a3.513,3.513,0,0,1-.25,1.164c-.439,1.459-1.16,4.325.157,5.283.981.715,2.42.083,3.286-.3a26.759,26.759,0,0,0,3.395-1.933c1.257-.792,2.494-1.593,3.7-2.436.474-.337,2.109-1.308,2.231-1.824.074-.311-.2-.516-.33-.644a7.715,7.715,0,0,0-1.651-1.1q-1.515-.765-3.036-1.526a12.359,12.359,0,0,1-3.725-3.177,2.929,2.929,0,0,0-.5-.567c-.176-.131-.465-.221-.58-.41a3.308,3.308,0,0,1-.125-1.414C441.993,209.033,441.929,208.533,442.086,208.36Z" transform="translate(-301.051 -195.608)" fill="#06509f" fill-rule="evenodd"/>
      <path id="XMLID_473_" d="M509.176,207.96a2.552,2.552,0,0,1,.991.423q.952.457,1.9.91c.26.131.741.282.769.628-.208.3-.981.2-1.446.189a4.43,4.43,0,0,0,.865.753,28.074,28.074,0,0,0,4.385,2.484,6.328,6.328,0,0,1,2.343,1.494,5.476,5.476,0,0,1,.048,4.985,11.583,11.583,0,0,1-2.956,2.484,59.61,59.61,0,0,1-5.818,3.789c-.837.455-2.327,1.353-3.616.85-2.286-.891-1.683-5-.991-7.2.147-.471.471-1.744.817-1.949.016.01.032.022.048.032a3.518,3.518,0,0,1-.25,1.164c-.439,1.459-1.161,4.325.157,5.283.981.715,2.42.083,3.286-.3a26.756,26.756,0,0,0,3.395-1.933c1.257-.792,2.494-1.593,3.7-2.436.475-.337,2.109-1.308,2.231-1.824.074-.311-.2-.516-.33-.644a7.715,7.715,0,0,0-1.651-1.1q-1.515-.765-3.036-1.526a12.36,12.36,0,0,1-3.725-3.177,2.927,2.927,0,0,0-.5-.567c-.176-.131-.465-.221-.58-.41a3.307,3.307,0,0,1-.125-1.414C509.079,208.63,509.015,208.13,509.176,207.96Z" transform="translate(-346.634 -195.336)" fill="#06509f" fill-rule="evenodd"/>
      <path id="XMLID_467_" d="M53.054,187.76a7.194,7.194,0,0,1,2.045,1.369,2.876,2.876,0,0,1-.644,1.478c-.093.151-.141.391-.346.423-.628-.436-1.257-.869-1.888-1.3-.08.272-.619,1.407-.85,1.446-.593-.535-1.353-.882-1.981-1.385a5.607,5.607,0,0,1,.644-1.369c.058-.131.147-.478.282-.519.183-.058.417.189.519.25a17.771,17.771,0,0,1,1.478,1.055A6.013,6.013,0,0,1,53.054,187.76Z" transform="translate(-37.063 -181.611)" fill="#06509f" fill-rule="evenodd"/>
      <path id="XMLID_461_" d="M367.154,199.47a7.2,7.2,0,0,1,2.045,1.369,2.887,2.887,0,0,1-.644,1.478c-.093.151-.141.391-.346.423-.628-.436-1.257-.869-1.888-1.3-.08.272-.619,1.407-.849,1.446-.593-.535-1.353-.882-1.981-1.385a5.606,5.606,0,0,1,.644-1.369c.058-.131.147-.478.282-.519.183-.058.417.189.519.25a17.763,17.763,0,0,1,1.478,1.055A6.378,6.378,0,0,1,367.154,199.47Z" transform="translate(-250.471 -189.567)" fill="#06509f" fill-rule="evenodd"/>
      <path id="XMLID_455_" d="M161.162,211.97a7.25,7.25,0,0,1,2.045,1.385,3.036,3.036,0,0,1-.644,1.462c-.064.106-.16.407-.282.439-.141.042-.417-.263-.5-.33l-1.007-.708c-.173-.109-.442-.205-.551-.378A8.434,8.434,0,0,1,161.162,211.97Z" transform="translate(-112.364 -198.06)" fill="#06509f" fill-rule="evenodd"/>
      <path id="XMLID_449_" d="M66.568,212.859a2.824,2.824,0,0,1,1.619.439c1.7,1.064,3.6,4.809,2.468,7.719a8.227,8.227,0,0,1-2.388,3.02q-.6.558-1.2,1.116a19.12,19.12,0,0,1-5.046,3.222,6.954,6.954,0,0,1-1.241.3,4,4,0,0,1-4.559-3.331,5.457,5.457,0,0,1-.125-2.013c.09-.542.016-1.042.109-1.542a8.6,8.6,0,0,1,1.257-3.552c.01.006.022.01.032.016a7.3,7.3,0,0,1-.439,1.856,7.487,7.487,0,0,0,.016,4.417c.564,1.282,2.484,2.1,4.417,1.571a17.332,17.332,0,0,0,6.322-3.709,11.187,11.187,0,0,0,1.7-1.651c.212-.263.58-.539.676-.9a3.714,3.714,0,0,0-.314-1.337,5.132,5.132,0,0,0-2.327-2.956,1.854,1.854,0,0,0-2.218.282c-.263.407.128.757.455.817.776.144,1.334-.333,2.074-.189.853.167,1.128,1,1.51,1.651.128.221.414.6.362.91h-.109a5.008,5.008,0,0,0-1.068-.423,2.4,2.4,0,0,0-.959.125,4.1,4.1,0,0,1-2.706-.048,2.7,2.7,0,0,1-.785-3.036,4.447,4.447,0,0,1,1.856-2.593A6.287,6.287,0,0,1,66.568,212.859Z" transform="translate(-41.591 -198.664)" fill="#06509f" fill-rule="evenodd"/>
      <path id="XMLID_435_" d="M216.019,181.73a3.06,3.06,0,0,0-.692.314,3.858,3.858,0,0,0-.9,1.2,10.466,10.466,0,0,0-1.212,5.581l-.833.362a18.52,18.52,0,0,1-2.956,1.084l.628-.628a5.953,5.953,0,0,0,1.43-2.75,3.175,3.175,0,0,0-.064-1.571c-.593-1.5-3-3.5-5.376-2.767-2.533.779-4.007,3.622-5.267,5.738-.308.551-.619,1.1-.926,1.651-.147.266-.295.535-.439.8a2.672,2.672,0,0,1-1.6-1.824c-.1-.5.164-.987.048-1.43l-.093-.064c-.423.019-3.459,2.517-8,2.952,0-.01,0-.006,0-.016a3.52,3.52,0,0,0,.676-.455,6.246,6.246,0,0,0,2.626-3.379,2.6,2.6,0,0,0-.423-1.933,3.912,3.912,0,0,0-2.879-2.3,5.443,5.443,0,0,0-2.735.676,19.406,19.406,0,0,0-4.292,3.049c-.414.4-.827.8-1.241,1.2.109-.8.221-1.6.33-2.4.064-.644.125-1.289.189-1.933.122-.76-.936-9.127-.85-9.441v-.032c.016-.01.032-.022.048-.032.333.215.564.622.958.882.055-.022.074-.032.131-.058a2.738,2.738,0,0,0-.317-1.343c-.369-1.039-.741-2.055-1.148-3.049-.115-.279-.349-1.144-.6-1.228a5.593,5.593,0,0,0-.692,1.667,1.2,1.2,0,0,0-.125.612c.061.147.122.295.183.446.051.247.128.632.18.875.006.439.991,12.948.991,13.987a7.092,7.092,0,0,1-.064,1.651,2.963,2.963,0,0,1-.66,1.023c-.446.59-.965,1.112-1.4,1.7-1.3.006-4.107-1.972-4.491-2.276,0-.013,0-.019,0-.029a6.234,6.234,0,0,0,1.212-2.565c.032-.337.064-.67.093-1.007a3.306,3.306,0,0,0-.032-1.1,5.813,5.813,0,0,0-.676-1.7c-.34-.577-.66-1.186-1.587-1.18a2.966,2.966,0,0,0-.785.362c-.773.612-1.443,2.824-1.116,4.369a9.532,9.532,0,0,0,.471,1.587l.25.6-1.241.817q-1.164.683-2.327,1.369l-1.106.721a.738.738,0,0,0-.131.112.707.707,0,0,0-.157.279c-.119.414-.378,1.253-.224,1.5.208.33,1.5.535,1.965.676,1.093.327,2.26.619,3.334.959a4.278,4.278,0,0,1,1.7.741c-.048.321-.452.5-.676.66-.731.516-1.523.949-2.311,1.414a23.83,23.83,0,0,1-7.075,2.863,6.359,6.359,0,0,1-5.219-.926c-1.984-1.577-1.988-4.959-.975-7.578q.322-.8.644-1.6a2.345,2.345,0,0,0,.391-1.138l-.032-.026c-.381.093-.955,1.292-1.148,1.667a14.4,14.4,0,0,0-1.212,3.757,20.7,20.7,0,0,0-.093,3.709c.452,2.311,1.491,3.889,3.584,4.543a9.9,9.9,0,0,0,1.321.237,8.635,8.635,0,0,0,3.789-.612,30.368,30.368,0,0,0,6.133-2.863,9.878,9.878,0,0,0,2.625-2.106c.507-.651,1.709-2.472,1.212-3.68-.458-1.109-2.064-1.414-3.254-1.792l-1.321-.394c.337-.205.67-.41,1.007-.612.513-.34,1.026-.683,1.542-1.023l.032-.032.866,1.212a6.291,6.291,0,0,0,2.526,1.776v.016c8.348,1.869,19.68-1.34,20.815-2.279a3.216,3.216,0,0,0,1.715,2.956c.013.362-.481,1.369-.25,1.776.029.048,0,.026.064.048.321-.183.654-1.167.769-1.587a11.513,11.513,0,0,0,5.44.346,34.8,34.8,0,0,0,4.684-.959c1.475-.462,2.789-1.1,4.151-1.635l.016.01a1.624,1.624,0,0,0,.17.708l.109.022a1.311,1.311,0,0,0,.205-.93c.455-.263.91-.523,1.369-.785a4.926,4.926,0,0,0,2.343-3.6C218.064,184.618,217.525,181.72,216.019,181.73ZM173.007,186.9a2.9,2.9,0,0,1-.535-.85c-.692-1.183-1.055-2.443.423-3.129.724.01,1.273,1.151,1.542,1.683a1.225,1.225,0,0,1,.221.8A5.084,5.084,0,0,1,173.007,186.9Zm6.524,3.709c.25-.272.5-.545.753-.817a8.516,8.516,0,0,1,1.241-1.257c.3-.289.609-.577.91-.866a16.258,16.258,0,0,1,3.805-2.5,8.159,8.159,0,0,1,1.542-.439l.708-.064c1.673.019,2.683,1.449,3.177,2.658-.01.343-.337.4-.567.519-.574.292-1.154.571-1.776.833A23.709,23.709,0,0,1,179.531,190.61Zm29.054-1.414c-2.074,1.276-5.1,2.7-8.38,1.776a10.354,10.354,0,0,1,1.116-1.981,10.884,10.884,0,0,1,3.632-3.946,3.651,3.651,0,0,1,.91-.33c.147-.022.295-.042.439-.064,1.808-.006,2.642.856,3.632,1.651.189.154.85.728.724,1.083C210.444,188,209.152,188.847,208.585,189.2Zm8.38-2.565a2.022,2.022,0,0,1-.741.66,12.3,12.3,0,0,1-1.856,1.023c-.183.08-.365.157-.551.237-.042-1.853.6-3.837,1.776-4.5.888-.01,1.093.968,1.289,1.667A1.36,1.36,0,0,1,216.964,186.632Z" transform="translate(-109.529 -168.58)" fill="#06509f" fill-rule="evenodd"/>
      <path id="XMLID_155_" d="M322.755,206.067c-.144-.564-.292-1.128-.436-1.7a1.466,1.466,0,0,1-.109-.558l.032-.029c.289.061.574.343.917.462a.188.188,0,0,0,.131-.1c.01-.625-1.09-2.141-1.4-2.664-.151-.256-.317-.689-.58-.837-.032-.006-.061-.013-.093-.022a5.692,5.692,0,0,0-.632,1.366c-.061.17-.125.34-.186.51.051.186.224.378.279.6.077.741.154,1.478.231,2.218a22.652,22.652,0,0,0,.981,3.712c.228.609.516,1.18.744,1.808a1.83,1.83,0,0,1,.183.673c-.035.654-1.4.965-2.209.894v0c-1.1-.061-1.718-.507-1.834-1.446-.055-.433.212-.952.042-1.257l-.093-.038c-.333,0-.4.378-.526.616a8.5,8.5,0,0,1-1.237,1.786,1.617,1.617,0,0,1-2.731-.68c-.125-.548.471-.942.208-1.4-.449-.135-.625.218-.83.455a10.643,10.643,0,0,1-1.481,1.616,3.935,3.935,0,0,1-1.026.571,3.979,3.979,0,0,1-.811.125c-2.3.231-2.526-1.385-3.315-2.542-.026,0-.051,0-.077,0a6.306,6.306,0,0,0-.757,2.177,6.4,6.4,0,0,0,.481,1.225c.173.465.285.92.42,1.427.173.648.382,1.85-.061,2.408a9.849,9.849,0,0,1-2.6,1.959,20.24,20.24,0,0,1-7.642,2.767c-3.084.484-5.963-.4-7.226-2.2a5.44,5.44,0,0,1-1.112-3.844c.192-.849.382-1.7.574-2.549.074-.26.3-.753.205-1.058,0-.016-.01-.032-.013-.048-.026,0-.051,0-.077,0a5.7,5.7,0,0,0-.91,2.356c-.882,3.113-.125,6.681,1.523,8.168a6.409,6.409,0,0,0,2.1,1.3,10.608,10.608,0,0,0,4.991.276A20.82,20.82,0,0,0,304.7,221.2a7.614,7.614,0,0,0,2.686-2.552,8.959,8.959,0,0,0,.862-3.683,4.081,4.081,0,0,0,3.885-.984c.282-.2.635-.773.888-.894a.1.1,0,0,0,.032.016c.1.247.2.494.3.744a2.313,2.313,0,0,0,2.565,1.141,2.734,2.734,0,0,0,.715-.385,3.9,3.9,0,0,0,1.042-1.372,3.206,3.206,0,0,1,.3-.612H318l.327.885a2.425,2.425,0,0,0,2.138,1.385c.019,0,.013,0,.013,0a2.31,2.31,0,0,0,2.132-1.2,6.4,6.4,0,0,0,.885-1.917C324,209.939,323.156,207.442,322.755,206.067Z" transform="translate(-199.045 -190.349)" fill="#06509f" fill-rule="evenodd"/>
      <path id="XMLID_426_" d="M108.832,211.97a7.249,7.249,0,0,1,2.045,1.385,3.036,3.036,0,0,1-.644,1.462c-.064.106-.16.407-.282.439-.141.042-.417-.263-.5-.33l-1.007-.708c-.173-.109-.442-.205-.551-.378A8.3,8.3,0,0,1,108.832,211.97Z" transform="translate(-76.809 -198.06)" fill="#06509f" fill-rule="evenodd"/>
      <path id="XMLID_418_" d="M392.039,218.249a2.391,2.391,0,0,0-2.074-1.18c-.189.048-.378.093-.567.141a3.9,3.9,0,0,0-2,2.42,2.341,2.341,0,0,0,.628,2.767c.981.6,2.744.234,3.882.676.632.247.994.58.535,1.212a11.7,11.7,0,0,1-2.186,2.154,19.686,19.686,0,0,1-5.533,3.491c-1.946.705-4.113.3-5-1.116-.8-1.269-.491-3.433-.08-4.921a6.121,6.121,0,0,0,.41-1.808c-.016-.01-.032-.022-.048-.032-.234.141-.317.532-.423.8a18.4,18.4,0,0,0-.708,2.359c-.83,3.315-.058,6.556,2.593,7.373a5.1,5.1,0,0,0,2.706-.048c2.337-.728,3.959-2.218,5.661-3.584l1.039-.991a6.647,6.647,0,0,0,1.164-9.717Zm-3.052,2.2c-.349-.125-.718-.641-.3-.991.821-.683,2.279.516,2.626,1.18A20,20,0,0,1,388.987,220.452Z" transform="translate(-260.708 -201.525)" fill="#06509f" fill-rule="evenodd"/>
      <path id="XMLID_412_" d="M133.816,229.209c1.606-.022,2.792.965,2.468,2.718a3.534,3.534,0,0,1-.423,1.3c-.234-.054-.41-.564-.551-.741a2.329,2.329,0,0,0-1.478-.785c-1.58-.285-3.366.914-4.2,1.51a17.689,17.689,0,0,0-3.459,3.3l-1.683,1.808a6.187,6.187,0,0,1-3.725,2.642,2.561,2.561,0,0,1-2.231-.958,4.582,4.582,0,0,1-.926-1.6c-.6-1.949.337-4.276.926-5.645.228-.529.455-1.032.708-1.526.093-.183.176-.481.394-.535l.032.032a4.773,4.773,0,0,1-.519,1.808,21.86,21.86,0,0,0-.959,3.1,3.9,3.9,0,0,0,.189,2.609c1.039,1.657,3.154.321,4.1-.423a15.121,15.121,0,0,0,2.122-2.218c.378-.4.753-.8,1.132-1.2a19.359,19.359,0,0,1,3.882-3.6,9.6,9.6,0,0,1,2.625-1.337l.991-.221C133.428,229.241,133.624,229.225,133.816,229.209Z" transform="translate(-83.283 -209.773)" fill="#06509f" fill-rule="evenodd"/>
      <path id="XMLID_406_" d="M422.456,229.209c1.606-.022,2.792.965,2.468,2.718a3.533,3.533,0,0,1-.423,1.3c-.234-.054-.41-.564-.551-.741a2.329,2.329,0,0,0-1.478-.785c-1.58-.285-3.366.914-4.2,1.51a17.688,17.688,0,0,0-3.459,3.3l-1.683,1.808a6.187,6.187,0,0,1-3.725,2.642,2.561,2.561,0,0,1-2.231-.958,4.581,4.581,0,0,1-.926-1.6c-.6-1.949.337-4.276.926-5.645.228-.529.455-1.032.708-1.526.093-.183.176-.481.394-.535l.032.032a4.774,4.774,0,0,1-.519,1.808,21.85,21.85,0,0,0-.959,3.1,3.9,3.9,0,0,0,.189,2.609c1.039,1.657,3.154.321,4.1-.423a15.122,15.122,0,0,0,2.122-2.218c.378-.4.753-.8,1.132-1.2a19.358,19.358,0,0,1,3.882-3.6,9.6,9.6,0,0,1,2.625-1.337l.991-.221C422.068,229.241,422.264,229.225,422.456,229.209Z" transform="translate(-279.393 -209.773)" fill="#06509f" fill-rule="evenodd"/>
      <path id="XMLID_398_" d="M31,206.222a6.158,6.158,0,0,0-2.658-3.994,2.947,2.947,0,0,0-1.619-.378,5.1,5.1,0,0,0-.567.205,4.632,4.632,0,0,0-1.776,2.577,2.4,2.4,0,0,0,1.039,3.049c.741.292,1.927-.01,2.831.141a3.491,3.491,0,0,1,1.651.628c.208.157.753.753.5,1.18a10.718,10.718,0,0,1-2.484,2.247,21.726,21.726,0,0,1-8.018,4.087c-2.763.689-5.735-.016-7.011-1.6a6.224,6.224,0,0,1-1.414-3,34.25,34.25,0,0,1,.378-3.491c.058-.253.26-.779.141-1.068-.01-.016-.022-.032-.032-.048h-.08c-.622.827-1.346,4.575-.692,6.982.625,2.3,1.814,3.949,4.01,4.639a10.881,10.881,0,0,0,1.414.266,7.5,7.5,0,0,0,2.484-.048,12.759,12.759,0,0,0,2.122-.551,24.271,24.271,0,0,0,5.879-3.366c.433-.327.824-.718,1.241-1.055a7.632,7.632,0,0,0,2.468-3.1,8.062,8.062,0,0,0,.346-1.542c.01-.224.022-.452.032-.676A5.55,5.55,0,0,0,31,206.222Zm-4.812-.93c-.292-.125-.625-.667-.237-.942.128-.093.3-.077.471-.141a2.37,2.37,0,0,1,2.122,1.3c.01.016.022.032.032.048A9.085,9.085,0,0,1,26.19,205.292Z" transform="translate(-10.936 -191.184)" fill="#06509f" fill-rule="evenodd"/>
      <path id="XMLID_147_" d="M101.824,201.833a3.153,3.153,0,0,0-1.7-.394,4.892,4.892,0,0,0-.612.205,4.488,4.488,0,0,0-1.824,2.593,2.831,2.831,0,0,0,.6,2.876c.894.7,2.395.253,3.523.064.715-.119.955.4,1.51.423.077-.3-.228-.7-.346-.9-.41-.705-.664-1.523-1.619-1.683-.542-.09-2.8.741-2.5-.471.2-.8,1.641-.766,2.359-.455a5.074,5.074,0,0,1,2.642,3.113,3.64,3.64,0,0,1,.237,1.587c-.093.289-1.077.692-1.385.85-1,.51-2.081.914-3.145,1.369q-.866.361-1.728.724v.006c-.7.3-1.4.606-2.093.907a20.853,20.853,0,0,0-3.725,2.029,13.8,13.8,0,0,0-2.751,2.751,9.091,9.091,0,0,1-2,2.045c-1.048.7-2.783,1.154-3.568-.141a3.966,3.966,0,0,1-.157-2.561,21.464,21.464,0,0,1,.942-3.049,4.894,4.894,0,0,0,.535-1.856l-.032-.032c-.215.055-.3.353-.394.535-.253.494-.481,1-.708,1.526-.558,1.3-1.5,3.574-.975,5.472a4.66,4.66,0,0,0,.959,1.76,2.576,2.576,0,0,0,2.263.975,5.24,5.24,0,0,0,3.222-2.327L90.8,218.2a12.518,12.518,0,0,1,4.9-3.27l2.17-.959v-.013c1.154-.529,2.327-1.045,3.462-1.545a9.454,9.454,0,0,0,2.029-1.116,4.582,4.582,0,0,0,1.148-1.635C105.912,206.462,103.866,203.032,101.824,201.833Z" transform="translate(-59.732 -190.905)" fill="#06509f" fill-rule="evenodd"/>
      <path id="XMLID_389_" d="M358.254,255.94a7.194,7.194,0,0,1,2.045,1.369,2.875,2.875,0,0,1-.644,1.478c-.093.151-.141.391-.346.423-.628-.436-1.257-.869-1.888-1.3-.08.272-.619,1.407-.849,1.446-.593-.535-1.353-.882-1.981-1.385a5.6,5.6,0,0,1,.644-1.369c.058-.131.147-.478.282-.519.183-.058.417.189.519.25a17.781,17.781,0,0,1,1.478,1.055A5.841,5.841,0,0,1,358.254,255.94Z" transform="translate(-244.424 -227.935)" fill="#06509f" fill-rule="evenodd"/>
      <path id="XMLID_145_" d="M58.3,269.09" transform="translate(-43.116 -236.869)" fill="#06509f" fill-rule="evenodd"/>
    </g>
    <g id="XMLID_351_" transform="translate(0 0.016)">
      <path id="XMLID_144_" d="M4.95,27.017a1.039,1.039,0,1,0,0-2.077,1.078,1.078,0,0,0-1.08,1.016A1.061,1.061,0,0,0,4.95,27.017Z" transform="translate(-2.629 -16.95)" fill="#06509f"/>
      <path id="XMLID_143_" d="M13.98,27.017a1.039,1.039,0,1,0,0-2.077,1.078,1.078,0,0,0-1.08,1.016A1.061,1.061,0,0,0,13.98,27.017Z" transform="translate(-8.765 -16.95)" fill="#06509f"/>
      <path id="XMLID_142_" d="M40.9,72.369A1.047,1.047,0,0,0,39.87,71.33a1.088,1.088,0,0,0-1.08,1.039,1.059,1.059,0,0,0,1.08,1.061A1.048,1.048,0,0,0,40.9,72.369Z" transform="translate(-26.355 -48.469)" fill="#06509f"/>
      <path id="XMLID_141_" d="M32.019,72.369a1.086,1.086,0,0,0-1.08-1.039,1.05,1.05,0,0,0,0,2.1A1.1,1.1,0,0,0,32.019,72.369Z" transform="translate(-20.322 -48.469)" fill="#06509f"/>
      <path id="XMLID_378_" d="M57.662,27.962h2.475c1.5,0,2.321-.907,2.321-2.552V13.472a3.026,3.026,0,0,1,.228-1.353l.016-.449-2.366,1.119.087.247.042.029c.189.131.2.25.2,1.106V24.458c0,1.5-.192,2.311-1.209,2.311H56.148a1.755,1.755,0,0,1-1.645-1.4V22.547a2.937,2.937,0,0,1,.228-1.353l.016-.449-2.366,1.119.087.25.119.08c.125.083.125.083.125.753v1.978c0,1.372-.045,2.148-.987,2.148a2.877,2.877,0,0,1-1.7-1.279V22.8a2.937,2.937,0,0,1,.228-1.353L50.272,21l-2.366,1.119.087.25.115.08c.125.083.125.083.125.753v1.721c0,1.372-.045,2.148-.987,2.148A2.875,2.875,0,0,1,45.557,25.8c.019-.16.019-.33.019-2.7a3.026,3.026,0,0,1,.228-1.353l.016-.449-2.366,1.119.087.25.119.08c.125.083.125.083.125.753v.955c0,1.5-.192,2.311-1.209,2.311H15.535a1.752,1.752,0,0,1-1.645-1.5V22.547a2.937,2.937,0,0,1,.228-1.353l.013-.449-2.366,1.119.087.25.042.029c.189.131.2.25.2,1.106v1.632a2.343,2.343,0,0,1-.423,1.6,1.045,1.045,0,0,1-.785.289H7.893c-1.035,0-1.231-.583-1.231-1.661V20.842l-.147-.006H6.4a7.673,7.673,0,0,0-1.324.119C1.988,21.518,0,22.887,0,24.432c0,.587.218,1.965,2.234,2.132.1.01.2.013.3.013a4.262,4.262,0,0,0,2.343-.7c.08.891.558,2.084,2.549,2.084h4.135a2.064,2.064,0,0,0,2-1.061,3.242,3.242,0,0,0,2.449,1.064H43.242a2.043,2.043,0,0,0,2.048-1.151,3.323,3.323,0,0,0,2.452,1.337A2.04,2.04,0,0,0,49.859,26.9a3.269,3.269,0,0,0,2.359,1.253,2.029,2.029,0,0,0,2.052-1.112,3.485,3.485,0,0,0,2.372.926Zm-52.8-6.078v2.962a2.211,2.211,0,0,1-1.645.737,1.237,1.237,0,0,1-.991-.41,1.241,1.241,0,0,1-.269-.942A3.2,3.2,0,0,1,4.866,21.883Z" transform="translate(0 -7.934)" fill="#06509f"/>
      <path id="XMLID_138_" d="M236.68,27.017a1.039,1.039,0,1,0,0-2.077,1.078,1.078,0,0,0-1.08,1.016A1.065,1.065,0,0,0,236.68,27.017Z" transform="translate(-160.073 -16.95)" fill="#06509f"/>
      <path id="XMLID_137_" d="M212.139,44.644V41.782a2.937,2.937,0,0,1,.228-1.353l.016-.449L210.017,41.1l.087.25.042.029c.189.131.2.25.2,1.106v1.209c0,1.5-.192,2.311-1.209,2.311h-4.956V42.782c0-1.677-.465-2.715-2.783-2.715a2.807,2.807,0,0,0-2.7,1.257l-.058.128.468.263.478.269.186.109.042-.212a1.09,1.09,0,0,1,1.234-.949c.045,0,.09,0,.141,0,.734.022,1.189.263,1.189,1.4V46h-3.719l-.526,1.193h11.675C211.316,47.2,212.139,46.289,212.139,44.644Z" transform="translate(-134.622 -27.169)" fill="#06509f"/>
      <path id="XMLID_136_" d="M253.3,27.486V12.925c0-1.042.067-1.209.224-1.484l.058-.106-.385-.365-.1.048c-.968.471-1.077.529-1.433.728-.192.106-.462.256-.981.532l-.131.071.311.638.147-.093a.762.762,0,0,1,.282-.115c.167,0,.212.128.212,1.077V27.483H253.3Z" transform="translate(-170.237 -7.459)" fill="#06509f"/>
      <path id="XMLID_135_" d="M251.393,2.348l.058-.048V1.659l-.237.087a1.762,1.762,0,0,1-.721.167.556.556,0,0,1-.449-.186.845.845,0,0,1-.151-.673.424.424,0,0,1,.391-.439l.042,0a.415.415,0,0,1,.346.26l.051.112.9-.189L251.5.61A1.531,1.531,0,0,0,250.44.03,1.426,1.426,0,0,0,248.783,1.2a1.266,1.266,0,0,0,.173.708c-.093-.006-.16-.022-.176-.048l-.186-.192-.654.975h2.5A1.649,1.649,0,0,0,251.393,2.348Z" transform="translate(-168.457 -0.016)" fill="#06509f"/>
      <path id="XMLID_134_" d="M292.212,44.644V41.782a2.937,2.937,0,0,1,.228-1.353l.016-.449L290.09,41.1l.087.25.042.029c.189.131.2.25.2,1.106v1.209c0,1.5-.192,2.311-1.209,2.311h-6.934a3.168,3.168,0,0,1-3.061-1.715,3.2,3.2,0,0,1,1.029-3.443l.077-.077L279.941,40l-.151.135c-1.654,1.487-2.27,3.215-1.686,4.738a3.846,3.846,0,0,0,3.638,2.327h8.152C291.388,47.2,292.212,46.289,292.212,44.644Z" transform="translate(-188.805 -27.169)" fill="#06509f"/>
      <path id="XMLID_133_" d="M294.37,32.537a1.039,1.039,0,1,0,0-2.077,1.078,1.078,0,0,0-1.08,1.016A1.063,1.063,0,0,0,294.37,32.537Z" transform="translate(-199.269 -20.701)" fill="#06509f"/>
      <path id="XMLID_132_" d="M303.4,32.537a1.039,1.039,0,1,0,0-2.077,1.078,1.078,0,0,0-1.08,1.016A1.065,1.065,0,0,0,303.4,32.537Z" transform="translate(-205.404 -20.701)" fill="#06509f"/>
      <path id="XMLID_131_" d="M349.679,72.369a1.086,1.086,0,0,0-1.08-1.039,1.05,1.05,0,0,0,0,2.1A1.1,1.1,0,0,0,349.679,72.369Z" transform="translate(-236.148 -48.469)" fill="#06509f"/>
      <path id="XMLID_130_" d="M358.559,72.369a1.047,1.047,0,0,0-1.029-1.039,1.088,1.088,0,0,0-1.08,1.039,1.059,1.059,0,0,0,1.08,1.061A1.048,1.048,0,0,0,358.559,72.369Z" transform="translate(-242.182 -48.469)" fill="#06509f"/>
      <path id="XMLID_129_" d="M382.73,27.017a1.039,1.039,0,1,0,0-2.077,1.078,1.078,0,0,0-1.08,1.016A1.061,1.061,0,0,0,382.73,27.017Z" transform="translate(-259.303 -16.95)" fill="#06509f"/>
      <path id="XMLID_128_" d="M424.557,20.206a.969.969,0,1,0,0-1.936,1.018,1.018,0,0,0-1.007.946A1,1,0,0,0,424.557,20.206Z" transform="translate(-287.771 -12.418)" fill="#06509f"/>
      <path id="XMLID_127_" d="M427.8,25.956a1.082,1.082,0,1,0,1.08-1.016A1.076,1.076,0,0,0,427.8,25.956Z" transform="translate(-290.659 -16.95)" fill="#06509f"/>
      <path id="XMLID_126_" d="M419.84,27.017a1.039,1.039,0,1,0,0-2.077,1.078,1.078,0,0,0-1.08,1.016A1.065,1.065,0,0,0,419.84,27.017Z" transform="translate(-284.517 -16.95)" fill="#06509f"/>
      <path id="XMLID_122_" d="M453.01,27.017a1.039,1.039,0,1,0,0-2.077,1.078,1.078,0,0,0-1.08,1.016A1.065,1.065,0,0,0,453.01,27.017Z" transform="translate(-307.053 -16.95)" fill="#06509f"/>
      <path id="XMLID_118_" d="M462.05,27.017a1.039,1.039,0,1,0,0-2.077,1.078,1.078,0,0,0-1.08,1.016A1.061,1.061,0,0,0,462.05,27.017Z" transform="translate(-313.195 -16.95)" fill="#06509f"/>
      <path id="XMLID_352_" d="M400.9,28.426A4.9,4.9,0,0,0,404,27.365a3.124,3.124,0,0,0,1.151-2.587,3.543,3.543,0,0,0-3.853-3.622,3.868,3.868,0,0,0-4.145,3.622v.157c-.058,1.318-.394,1.83-1.208,1.83H393.46a1.755,1.755,0,0,1-1.645-1.4V22.547a2.935,2.935,0,0,1,.228-1.353l.016-.449-2.366,1.119.087.25.119.08c.125.083.125.083.125.753v1.978c0,1.372-.045,2.148-.991,2.148a2.877,2.877,0,0,1-1.7-1.279V22.8a2.937,2.937,0,0,1,.228-1.353L387.58,21l-2.366,1.119.087.25.115.08c.125.083.125.083.125.753v1.721c0,1.372-.045,2.148-.991,2.148a2.875,2.875,0,0,1-1.689-1.269c.019-.16.019-.33.019-2.7a3.027,3.027,0,0,1,.228-1.353l.016-.449-2.366,1.119.087.25.119.08c.125.083.125.083.125.753v.955c0,1.5-.192,2.311-1.209,2.311h-3.308a1.752,1.752,0,0,1-1.645-1.5V22.547a2.969,2.969,0,0,1,.228-1.356l.016-.449-2.366,1.119.087.25.042.029c.189.131.2.25.2,1.106v1.632a2.342,2.342,0,0,1-.423,1.6,1.045,1.045,0,0,1-.785.289h-2.969a1.755,1.755,0,0,1-1.645-1.4V22.547a2.937,2.937,0,0,1,.228-1.353l.016-.449-2.366,1.119.087.25.119.08c.125.083.125.083.125.753v1.978c0,1.372-.045,2.148-.987,2.148a2.877,2.877,0,0,1-1.7-1.279V22.8a2.937,2.937,0,0,1,.228-1.353l.016-.449-2.366,1.119.087.25.115.08c.125.083.125.083.125.753v1.721c0,1.372-.045,2.148-.987,2.148a2.875,2.875,0,0,1-1.689-1.269c.019-.16.019-.33.019-2.7a3.026,3.026,0,0,1,.228-1.353l.016-.449-2.366,1.119.087.25.119.08c.125.083.125.083.125.753v.955c0,1.5-.192,2.311-1.209,2.311H350.7a4,4,0,0,0,1.9-3.372c-.164-2.1-2.2-2.843-4.049-2.843-2.385,0-3.834,1.035-3.975,2.843a4,4,0,0,0,1.837,3.369H342.54a1.752,1.752,0,0,1-1.645-1.5V22.547a2.936,2.936,0,0,1,.228-1.353l.016-.449-2.366,1.119.087.25.042.029c.189.131.2.25.2,1.106v1.632a2.343,2.343,0,0,1-.423,1.6,1.045,1.045,0,0,1-.785.289h-3.164c-1.016,0-1.209-.811-1.209-2.311V13.472a2.95,2.95,0,0,1,.228-1.353l.016-.449L331.4,12.789l.087.247.042.029c.189.131.2.25.2,1.106V25.41c0,1.645.824,2.552,2.321,2.552h4.523a2.064,2.064,0,0,0,2-1.061,3.242,3.242,0,0,0,2.449,1.064h4.135a5.364,5.364,0,0,1,2.776,0h6.133a2.043,2.043,0,0,0,2.048-1.151,3.323,3.323,0,0,0,2.452,1.337,2.04,2.04,0,0,0,2.116-1.253,3.269,3.269,0,0,0,2.359,1.253,2.029,2.029,0,0,0,2.052-1.112,3.485,3.485,0,0,0,2.372.926h3.142a2.064,2.064,0,0,0,2-1.061,3.242,3.242,0,0,0,2.449,1.064h3.5a2.043,2.043,0,0,0,2.048-1.151,3.323,3.323,0,0,0,2.452,1.337,2.04,2.04,0,0,0,2.116-1.253,3.269,3.269,0,0,0,2.359,1.253,2.029,2.029,0,0,0,2.052-1.112,3.485,3.485,0,0,0,2.372.926h2.68a2.3,2.3,0,0,0,1.558-.5A4,4,0,0,0,400.9,28.426Zm.17-6.54c1.26,0,2.109,1.237,2.109,3.081,0,1.705-.7,2.683-1.914,2.683-1.25,0-2.157-1.353-2.157-3.219C399.111,22.839,399.846,21.887,401.073,21.887Zm-52.536-.558a2,2,0,0,1,2.109,2.148,3.767,3.767,0,0,1-2.109,2.9,3.649,3.649,0,0,1-2.036-2.9A1.963,1.963,0,0,1,348.538,21.329Z" transform="translate(-225.162 -7.934)" fill="#06509f"/>
    </g>
    <g id="XMLID_328_" transform="translate(32.15 27.976)">
      <path id="XMLID_13_" d="M105.108,103.4a1.02,1.02,0,1,0,0-2.039,1.057,1.057,0,0,0-1.058,1A1.037,1.037,0,0,0,105.108,103.4Z" transform="translate(-102.845 -97.016)" fill="#06509f"/>
      <path id="XMLID_12_" d="M113.861,103.4a1.02,1.02,0,1,0,0-2.039,1.06,1.06,0,0,0-1.061,1A1.04,1.04,0,0,0,113.861,103.4Z" transform="translate(-108.79 -97.016)" fill="#06509f"/>
      <path id="XMLID_343_" d="M140.131,116.5a3.764,3.764,0,0,0-4.033,3.523v.151c-.055,1.266-.381,1.76-1.157,1.76h-4.719l-.314,0a7.782,7.782,0,0,0,1.43-2.462,3.817,3.817,0,0,1,1.471-1.952l.3-.208-.24-.125a9.767,9.767,0,0,0-4.485-1.01,9.106,9.106,0,0,0-4.491,1.013l-.228.128.276.192a3.777,3.777,0,0,1,1.459,1.962,7.728,7.728,0,0,0,1.439,2.462c-.042,0-.083,0-.125,0l-3.453,0H107.952c-.894,0-1.18-.388-1.18-1.6V116.18l-.157-.006s-.042,0-.119,0a7.5,7.5,0,0,0-1.286.115c-2.991.551-4.921,1.879-4.921,3.385,0,.571.212,1.917,2.177,2.081a2.936,2.936,0,0,0,.295.013,4.173,4.173,0,0,0,2.26-.667c.083.866.561,2.01,2.484,2.01h18.638a7.71,7.71,0,0,0,2.238-.256,7.887,7.887,0,0,0,2.244.256h5a2.246,2.246,0,0,0,1.51-.481,3.862,3.862,0,0,0,2.619.933,4.767,4.767,0,0,0,3.007-1.032,3.048,3.048,0,0,0,1.122-2.516A3.454,3.454,0,0,0,140.131,116.5Zm-.026,6.293c-1.205,0-2.077-1.308-2.077-3.11,0-1.536.705-2.452,1.888-2.452,1.215,0,2.029,1.2,2.029,2.972C141.949,121.847,141.279,122.79,140.105,122.79Zm-12.329-2.279a12.553,12.553,0,0,0-1.811-2.85,5.05,5.05,0,0,1,2.417-.5,5.248,5.248,0,0,1,2.411.507,9.926,9.926,0,0,0-1.8,2.85,2.842,2.842,0,0,1-.58.891A3.15,3.15,0,0,1,127.776,120.511Zm-22.767-3.286v2.85a2.14,2.14,0,0,1-1.584.705,1.13,1.13,0,0,1-1.209-1.3A3.09,3.09,0,0,1,105.009,117.225Z" transform="translate(-100.29 -107.079)" fill="#06509f"/>
      <path id="XMLID_7_" d="M271.338,146.39a1.057,1.057,0,0,0-1.058,1,1.061,1.061,0,1,0,1.058-1Z" transform="translate(-215.786 -127.611)" fill="#06509f"/>
      <path id="XMLID_6_" d="M264.585,89.813l.042.029c.18.125.189.237.189,1.061v9.973c0,1.446-.186,2.228-1.157,2.228h-3.773a1.7,1.7,0,0,1-1.584-1.529v-.654c0-1.77-1.471-3.651-4.2-3.651a6.306,6.306,0,0,0-1,.083,6.81,6.81,0,0,0-4.065,2.411l-.045.061.173.75.205-.186a7.528,7.528,0,0,1,3.565-1.741,6.306,6.306,0,0,1,.757-.048c2.561,0,2.837,1.8,2.837,2.571,0,.067,0,.144,0,.224a2.221,2.221,0,0,1-.3,1.5.793.793,0,0,1-.6.215h-8.444c-.975,0-1.157-.782-1.157-2.228V90.23a2.818,2.818,0,0,1,.221-1.308l.016-.032v-.43l-2.324,1.1.09.256.042.029c.18.125.189.237.189,1.061v10.9c0,1.6.8,2.488,2.263,2.488h9.649a1.854,1.854,0,0,0,1.808-1.013,3.159,3.159,0,0,0,2.366,1.016h3.962c1.459,0,2.263-.885,2.263-2.488V90.23a2.8,2.8,0,0,1,.221-1.308l.016-.032v-.43l-2.324,1.1Z" transform="translate(-197.896 -88.252)" fill="#06509f"/>
      <path id="XMLID_5_" d="M325.418,87.858c-.939.455-1.042.513-1.388.705-.189.1-.449.247-.952.516l-.138.074.314.644.154-.1a.754.754,0,0,1,.266-.109c.151,0,.189.128.189,1.032v13.227h1.766V89.721c0-1.007.067-1.167.215-1.433l.061-.109-.385-.369Z" transform="translate(-251.564 -87.81)" fill="#06509f"/>
      <path id="XMLID_4_" d="M369.271,155.6a1.07,1.07,0,0,0-1.061,1.019,1.037,1.037,0,1,0,1.061-1.019Z" transform="translate(-282.322 -133.868)" fill="#06509f"/>
      <path id="XMLID_3_" d="M360.613,155.6a1.031,1.031,0,0,0,0,2.061,1.031,1.031,0,1,0,0-2.061Z" transform="translate(-276.472 -133.868)" fill="#06509f"/>
      <path id="XMLID_2_" d="M386.371,119.813c0-.083,0-.157,0-.221,0-1.77-1.472-3.651-4.2-3.651a6.307,6.307,0,0,0-1,.083,6.811,6.811,0,0,0-4.065,2.411l-.045.061.173.75.205-.186a7.528,7.528,0,0,1,3.565-1.741,6.309,6.309,0,0,1,.757-.048c2.561,0,2.837,1.8,2.837,2.571,0,.067,0,.144,0,.224a2.221,2.221,0,0,1-.3,1.5.793.793,0,0,1-.6.215H361.244c-.487-1.048-1.85-1.821-3.126-2.443l-.234-.115v1.218l.09.045a3.223,3.223,0,0,1,1.907,2.215,2.876,2.876,0,0,1-1.026,2.443,3.448,3.448,0,0,1-2.622,1.08,6.011,6.011,0,0,1-4.671-2.542,2.16,2.16,0,0,1-.555-1.571c.115-.317.3-.545.984-.9l.147-.077-.321-.567-.135.058c-1.234.529-2.026,1.228-2.17,1.92a3.21,3.21,0,0,0,.952,2.286,7.765,7.765,0,0,0,5.764,2.92c1.228,0,2.725-1.26,3.513-2.01a5.745,5.745,0,0,0,1.712-2.773h22.8a1.964,1.964,0,0,0,1.471-.548A3.662,3.662,0,0,0,386.371,119.813Z" transform="translate(-269.605 -106.922)" fill="#06509f"/>
    </g>
  </g>
</svg>
